<?xml version="1.0" encoding="UTF-8" standalone="no"?>
<!-- Created with Inkscape (http://www.inkscape.org/) -->

<svg
   width="210mm"
   height="210mm"
   viewBox="0 0 210 210"
   version="1.1"
   id="svg1"
   xml:space="preserve"
   inkscape:version="1.3 (0e150ed6c4, 2023-07-21)"
   sodipodi:docname="logo.svg"
   xmlns:inkscape="http://www.inkscape.org/namespaces/inkscape"
   xmlns:sodipodi="http://sodipodi.sourceforge.net/DTD/sodipodi-0.dtd"
   xmlns="http://www.w3.org/2000/svg"
   xmlns:svg="http://www.w3.org/2000/svg"><sodipodi:namedview
     id="namedview1"
     pagecolor="#ffffff"
     bordercolor="#000000"
     borderopacity="0.25"
     inkscape:showpageshadow="2"
     inkscape:pageopacity="0.0"
     inkscape:pagecheckerboard="0"
     inkscape:deskcolor="#d1d1d1"
     inkscape:document-units="mm"
     showgrid="false"
     inkscape:zoom="0.46858866"
     inkscape:cx="396.93662"
     inkscape:cy="391.60145"
     inkscape:window-width="1366"
     inkscape:window-height="731"
     inkscape:window-x="0"
     inkscape:window-y="0"
     inkscape:window-maximized="1"
     inkscape:current-layer="layer1" /><defs
     id="defs1" /><g
     inkscape:label="Capa 1"
     inkscape:groupmode="layer"
     id="layer1"><path
       style="fill:#b22520;stroke-width:5.27519;fill-opacity:1"
       d="M 53.940309,196.10039 C 43.062952,194.3823 30.079433,188.37379 25.175775,182.78885 16.62828,173.05382 16.060129,159.61605 23.545249,144.22412 39.475526,121.33615 52.75075,98.152556 65.951307,75.773183 c 9.64423,-15.940046 19.78907,-35.624043 24.82689,-48.17153 2.54275,-6.333126 5.21553,-11.51477 5.93961,-11.51477 2.10876,0 0.0754,14.196513 -4.04956,28.27654 -5.16231,17.619881 -16.57289,43.426643 -31.00494,70.122437 -19.171659,35.46291 -22.640263,42.6156 -22.640263,46.68716 0,8.00807 8.027166,11.38029 27.159211,11.40968 16.374382,0.0264 36.604565,-3.71121 54.753925,-10.11256 15.21421,-5.36614 28.71418,-12.06971 27.67919,-13.74438 -1.4894,-2.40987 -15.83489,-5.60991 -37.78118,-8.42776 -23.662493,-3.03825 -29.700063,-5.19433 -31.876723,-11.38367 -3.06272,-8.70873 3.00692,-16.43716 26.903793,-34.256434 20.6238,-15.378662 32.69367,-27.379921 37.13808,-36.92689 7.79158,-16.736933 2.7765,-27.173558 -21.97717,-45.735643 -4.41401,-3.3099354 -8.02546,-6.1889544 -8.02546,-6.3978314 0,-1.36183 13.11866,2.992109 19.89039,6.6014064 38.15725,20.337602 34.2678,54.284149 -10.67036,93.129652 -6.60633,5.71063 -12.01146,10.89229 -12.01146,11.51476 0,0.62253 2.98334,1.13554 6.62971,1.14002 9.33646,0.0106 32.03396,3.59674 40.09278,6.33283 18.64197,6.32908 26.91649,19.42155 21.08909,33.36844 -6.4203,15.36598 -35.1743,29.88342 -72.01908,36.36137 -14.977293,2.63328 -41.71254,3.68836 -52.057313,2.05438 z"
       id="path1"
       sodipodi:nodetypes="sssssscsscssssssssssscsssss" /></g></svg>
