<?xml version="1.0" encoding="UTF-8" standalone="no"?>
<!-- Created with Inkscape (http://www.inkscape.org/) -->

<svg
   width="210mm"
   height="210mm"
   viewBox="0 0 210 210"
   version="1.1"
   id="svg1"
   xml:space="preserve"
   inkscape:version="1.3 (0e150ed6c4, 2023-07-21)"
   sodipodi:docname="logoW.svg"
   xmlns:inkscape="http://www.inkscape.org/namespaces/inkscape"
   xmlns:sodipodi="http://sodipodi.sourceforge.net/DTD/sodipodi-0.dtd"
   xmlns="http://www.w3.org/2000/svg"
   xmlns:svg="http://www.w3.org/2000/svg"><sodipodi:namedview
     id="namedview1"
     pagecolor="#ffffff"
     bordercolor="#000000"
     borderopacity="0.25"
     inkscape:showpageshadow="2"
     inkscape:pageopacity="0.0"
     inkscape:pagecheckerboard="0"
     inkscape:deskcolor="#d1d1d1"
     inkscape:document-units="mm"
     showgrid="false"
     inkscape:zoom="0.33134222"
     inkscape:cx="452.70416"
     inkscape:cy="451.19514"
     inkscape:window-width="1366"
     inkscape:window-height="731"
     inkscape:window-x="0"
     inkscape:window-y="0"
     inkscape:window-maximized="1"
     inkscape:current-layer="layer1" /><defs
     id="defs1" /><g
     inkscape:label="Capa 1"
     inkscape:groupmode="layer"
     id="layer1"><path
       style="fill:#ffffff;stroke-width:5.27519"
       d="M 59.506983,197.92074 C 48.629626,196.20265 35.646107,190.19414 30.742449,184.6092 22.194954,174.87417 21.626803,161.4364 29.111923,146.04447 45.0422,123.1565 58.317424,99.972903 71.517981,77.593535 81.162206,61.653489 91.30705,41.969492 96.344867,29.422005 c 2.542752,-6.333126 5.215533,-11.51477 5.939613,-11.51477 2.10876,0 0.0754,14.196513 -4.049562,28.27654 -5.162311,17.619881 -16.572886,43.42664 -31.004937,70.122435 -19.171659,35.46291 -22.640263,42.6156 -22.640263,46.68716 0,8.00807 8.027166,11.38029 27.159211,11.40968 16.37438,0.0264 36.604561,-3.71121 54.753921,-10.11256 15.21421,-5.36614 28.71418,-12.06971 27.67919,-13.74438 -1.4894,-2.40987 -15.83489,-5.60991 -37.78118,-8.42776 -23.66249,-3.03825 -29.700061,-5.19433 -31.876716,-11.38367 -3.062727,-8.70873 3.006917,-16.43716 26.903786,-34.256428 20.6238,-15.378666 32.69367,-27.379925 37.13808,-36.926894 7.79158,-16.736933 2.7765,-27.173558 -21.97717,-45.735643 -4.41401,-3.309935 -8.02546,-6.1889544 -8.02546,-6.3978312 0,-1.3618299 13.11866,2.9921092 19.89039,6.6014062 38.15725,20.337602 34.2678,54.284149 -10.67036,93.12965 -6.60633,5.71063 -12.01146,10.89229 -12.01146,11.51476 0,0.62253 2.98334,1.13554 6.62971,1.14002 9.33646,0.0106 32.03396,3.59674 40.09278,6.33283 18.64197,6.32908 26.91649,19.42155 21.08909,33.36844 -6.4203,15.36598 -35.1743,29.88342 -72.01908,36.36137 -14.977294,2.63328 -41.712536,3.68836 -52.057309,2.05438 z"
       id="path1"
       sodipodi:nodetypes="sssssscsscssssssssssscsssss" /></g></svg>
