<?xml version="1.0" encoding="UTF-8" standalone="no"?>
<!-- Created with Inkscape (http://www.inkscape.org/) -->

<svg
   width="210mm"
   height="210mm"
   viewBox="0 0 210 210"
   version="1.1"
   id="svg1"
   xml:space="preserve"
   inkscape:version="1.3 (0e150ed6c4, 2023-07-21)"
   sodipodi:docname="logo.svg"
   xmlns:inkscape="http://www.inkscape.org/namespaces/inkscape"
   xmlns:sodipodi="http://sodipodi.sourceforge.net/DTD/sodipodi-0.dtd"
   xmlns="http://www.w3.org/2000/svg"
   xmlns:svg="http://www.w3.org/2000/svg"><sodipodi:namedview
     id="namedview1"
     pagecolor="#ffffff"
     bordercolor="#000000"
     borderopacity="0.25"
     inkscape:showpageshadow="2"
     inkscape:pageopacity="0.0"
     inkscape:pagecheckerboard="0"
     inkscape:deskcolor="#d1d1d1"
     inkscape:document-units="mm"
     showgrid="false"
     inkscape:zoom="0.46858866"
     inkscape:cx="396.93662"
     inkscape:cy="390.53442"
     inkscape:window-width="1366"
     inkscape:window-height="732"
     inkscape:window-x="0"
     inkscape:window-y="0"
     inkscape:window-maximized="1"
     inkscape:current-layer="layer1" /><defs
     id="defs1" /><g
     inkscape:label="Capa 1"
     inkscape:groupmode="layer"
     id="layer1"><path
       style="fill:#000000;stroke-width:3.1634"
       d="m 15.980062,134.62251 c 0.26097,-70.506134 0.297354,-71.884025 2.066404,-78.153284 6.875188,-24.36662 26.151646,-43.545329 50.049441,-49.7956272 8.14256,-2.1296266 25.370444,-2.1245977 33.479433,0.00973 18.28297,4.8122812 34.22864,17.0217482 43.33088,33.1781382 4.78177,8.487627 7.10723,15.488411 8.35627,25.156648 l 0.92875,7.189077 4.24199,1.926381 c 12.50383,5.678225 24.96317,16.753927 31.59313,28.084657 16.15845,27.61499 11.91859,61.25919 -10.55162,83.72938 -10.66599,10.66605 -23.36043,17.15204 -38.32195,19.57996 -3.22354,0.52313 -28.5325,0.85621 -65.349772,0.86011 l -60.088754,0.007 z m 127.134488,48.95978 c 9.11872,-2.68432 14.28928,-5.72452 20.91157,-12.29558 10.04691,-9.96919 14.23961,-19.90506 14.21983,-33.69831 -0.0189,-13.00154 -3.86672,-23.197 -12.20703,-32.34248 -3.70258,-4.06002 -12.98967,-11.00797 -14.71402,-11.00797 -0.34573,0 -1.22099,1.738628 -1.94502,3.863624 -6.00506,17.623856 -23.54698,34.494716 -42.44853,40.824626 -12.480187,4.17951 -23.977548,4.64684 -38.991622,1.5849 -6.608202,-1.34767 -6.839255,-1.47357 -6.492747,-3.53836 0.197714,-1.17752 0.738819,-5.08807 1.202673,-8.69006 4.088409,-31.748191 30.462537,-56.804261 62.757646,-59.621408 7.55016,-0.658632 7.44708,-0.520158 5.57034,-7.484253 C 126.21184,43.492827 112.16793,30.571562 93.621863,26.807524 69.722341,21.956935 45.005106,37.528055 38.872699,61.297842 c -1.15044,4.459232 -1.326756,13.058982 -1.326756,64.704788 v 59.56204 l 50.428389,-0.29768 c 43.910338,-0.25908 51.037378,-0.47695 55.140218,-1.68474 z m -42.01872,-65.04945 c 10.71888,-3.91788 21.14627,-12.99076 26.01498,-22.635603 1.37693,-2.727701 2.50354,-5.158571 2.50354,-5.401854 0,-0.243265 -1.41243,-0.433144 -3.13871,-0.421905 -9.49739,0.06196 -20.9307,5.444974 -29.110667,13.706042 -4.935752,4.98468 -11.273884,14.456 -11.273884,16.84699 0,1.06888 10.274724,-0.36477 15.004741,-2.09367 z"
       id="path1"
       sodipodi:nodetypes="ccsssscsssssccsscsscsscssssssccssssscsss" /></g></svg>
